<svg xmlns="http://www.w3.org/2000/svg" xmlns:xlink="http://www.w3.org/1999/xlink" width="1920" zoomAndPan="magnify" viewBox="0 0 1440 809.999993" height="1080" preserveAspectRatio="xMidYMid meet" version="1.0"><defs><filter x="0%" y="0%" width="100%" height="100%" id="1265a00914"><feColorMatrix values="0 0 0 0 1 0 0 0 0 1 0 0 0 0 1 0 0 0 1 0" color-interpolation-filters="sRGB"/></filter><mask id="8108e5f0b0"><g filter="url(#1265a00914)"><rect x="-144" width="1728" fill="#000000" y="-80.999999" height="971.999992" fill-opacity="0.2196"/></g></mask><clipPath id="05c779c90c"><path d="M 22 0 L 610 0 L 610 518 L 22 518 Z M 22 0 " clip-rule="nonzero"/></clipPath><clipPath id="d7b891ccdc"><path d="M 695.769531 -121.519531 L 394.804688 580.15625 L -65.628906 382.664062 L 235.339844 -319.011719 Z M 695.769531 -121.519531 " clip-rule="nonzero"/></clipPath><clipPath id="20980cd4df"><path d="M 695.769531 -121.519531 L 394.804688 580.15625 L -65.628906 382.664062 L 235.339844 -319.011719 Z M 695.769531 -121.519531 " clip-rule="nonzero"/></clipPath><clipPath id="d5f6bcae51"><rect x="0" width="697" y="0" height="584"/></clipPath><mask id="e3089bf8d4"><g filter="url(#1265a00914)"><rect x="-144" width="1728" fill="#000000" y="-80.999999" height="971.999992" fill-opacity="0.2588"/></g></mask><clipPath id="0059d37b52"><path d="M 0 0 L 679 0 L 679 582 L 0 582 Z M 0 0 " clip-rule="nonzero"/></clipPath><clipPath id="a4118a7e66"><path d="M 779.300781 -163.1875 L 428.664062 654.289062 L -108.277344 423.980469 L 242.359375 -393.496094 Z M 779.300781 -163.1875 " clip-rule="nonzero"/></clipPath><clipPath id="6cab2ae348"><path d="M 779.300781 -163.1875 L 428.664062 654.289062 L -108.277344 423.980469 L 242.359375 -393.496094 Z M 779.300781 -163.1875 " clip-rule="nonzero"/></clipPath><clipPath id="b98af063be"><rect x="0" width="780" y="0" height="658"/></clipPath><mask id="6667d3cf4c"><g filter="url(#1265a00914)"><rect x="-144" width="1728" fill="#000000" y="-80.999999" height="971.999992" fill-opacity="0.1373"/></g></mask><clipPath id="db7fea18d0"><path d="M 102 122 L 837 122 L 837 404 L 102 404 Z M 102 122 " clip-rule="nonzero"/></clipPath><clipPath id="cbaf6b5732"><path d="M 913.992188 403.507812 L 297.730469 854.234375 L 1.96875 449.851562 L 618.230469 -0.875 Z M 913.992188 403.507812 " clip-rule="nonzero"/></clipPath><clipPath id="1973585779"><path d="M 913.992188 403.507812 L 297.730469 854.234375 L 1.96875 449.851562 L 618.230469 -0.875 Z M 913.992188 403.507812 " clip-rule="nonzero"/></clipPath><clipPath id="c496b831a6"><rect x="0" width="915" y="0" height="404"/></clipPath><mask id="275c33b6da"><g filter="url(#1265a00914)"><rect x="-144" width="1728" fill="#000000" y="-80.999999" height="971.999992" fill-opacity="0.1686"/></g></mask><clipPath id="347fa72016"><path d="M 90 0 L 682 0 L 682 703 L 90 703 Z M 90 0 " clip-rule="nonzero"/></clipPath><clipPath id="199d28b766"><path d="M 431.660156 777.625 L 2.691406 146.027344 L 417.140625 -135.457031 L 846.109375 496.140625 Z M 431.660156 777.625 " clip-rule="nonzero"/></clipPath><clipPath id="25752be057"><path d="M 431.660156 777.625 L 2.691406 146.027344 L 417.140625 -135.457031 L 846.109375 496.140625 Z M 431.660156 777.625 " clip-rule="nonzero"/></clipPath><clipPath id="421670e21f"><rect x="0" width="682" y="0" height="779"/></clipPath><mask id="ecb955b99f"><g filter="url(#1265a00914)"><rect x="-144" width="1728" fill="#000000" y="-80.999999" height="971.999992" fill-opacity="0.2"/></g></mask><clipPath id="fc75f886fc"><path d="M 102 123 L 837 123 L 837 362 L 102 362 Z M 102 123 " clip-rule="nonzero"/></clipPath><clipPath id="f7c2d1d304"><path d="M 913.992188 403.996094 L 297.730469 854.722656 L 1.96875 450.339844 L 618.230469 -0.386719 Z M 913.992188 403.996094 " clip-rule="nonzero"/></clipPath><clipPath id="aa51fa8a7a"><path d="M 913.992188 403.996094 L 297.730469 854.722656 L 1.96875 450.339844 L 618.230469 -0.386719 Z M 913.992188 403.996094 " clip-rule="nonzero"/></clipPath><clipPath id="3b4e98490a"><rect x="0" width="915" y="0" height="362"/></clipPath><mask id="4cd4e4284c"><g filter="url(#1265a00914)"><rect x="-144" width="1728" fill="#000000" y="-80.999999" height="971.999992" fill-opacity="0.1765"/></g></mask><clipPath id="bca15dda67"><path d="M 90 0 L 612 0 L 612 703 L 90 703 Z M 90 0 " clip-rule="nonzero"/></clipPath><clipPath id="3b53e5333c"><path d="M 431.761719 777.625 L 2.796875 146.027344 L 417.242188 -135.457031 L 846.210938 496.140625 Z M 431.761719 777.625 " clip-rule="nonzero"/></clipPath><clipPath id="4a2ec3d24c"><path d="M 431.761719 777.625 L 2.796875 146.027344 L 417.242188 -135.457031 L 846.210938 496.140625 Z M 431.761719 777.625 " clip-rule="nonzero"/></clipPath><clipPath id="42a57ae455"><rect x="0" width="612" y="0" height="779"/></clipPath></defs><rect x="-144" width="1728" fill="#ffffff" y="-80.999999" height="971.999992" fill-opacity="1"/><rect x="-144" width="1728" fill="#ffffff" y="-80.999999" height="971.999992" fill-opacity="1"/><rect x="-144" width="1728" fill="#ffffff" y="-80.999999" height="971.999992" fill-opacity="1"/><g mask="url(#8108e5f0b0)"><g transform="matrix(1, 0, 0, 1, 0, 0.000000000000039746)"><g clip-path="url(#d5f6bcae51)"><g clip-path="url(#05c779c90c)"><g clip-path="url(#d7b891ccdc)"><g clip-path="url(#20980cd4df)"><path fill="#c0caf8" d="M 513.027344 -186.332031 C 528.121094 -177.566406 544.777344 -171.882812 560.445312 -164.195312 C 576.113281 -156.503906 591.300781 -146.273438 600.15625 -131.234375 C 609.621094 -115.160156 610.742188 -95.390625 608.144531 -76.917969 C 605.546875 -58.445312 599.53125 -40.640625 595.566406 -22.410156 C 583.820312 31.609375 590.179688 88.597656 575.988281 142.027344 C 567.554688 173.769531 551.214844 204.371094 525.160156 224.371094 C 507.203125 238.15625 485.648438 246.25 465.578125 256.722656 C 455.539062 261.957031 445.777344 267.851562 437.195312 275.234375 C 428.613281 282.613281 421.210938 291.550781 416.59375 301.886719 C 409.003906 318.875 409.390625 338.296875 411.488281 356.78125 C 413.585938 375.265625 417.257812 393.777344 415.746094 412.316406 C 413.988281 433.953125 405.03125 454.816406 391.21875 471.5625 C 377.40625 488.308594 358.867188 500.964844 338.535156 508.558594 C 297.867188 523.746094 251.351562 518.296875 212.003906 499.976562 C 178.757812 484.496094 150.285156 460.636719 120.871094 438.730469 C 103.554688 425.832031 85.742188 413.5 69.816406 398.917969 C 53.890625 384.339844 39.765625 367.261719 31.617188 347.265625 C 24.597656 330.039062 22.238281 311.199219 22.421875 292.597656 C 22.601562 273.996094 25.25 255.515625 27.917969 237.101562 C 35.539062 184.519531 43.683594 130.972656 67.277344 83.367188 C 94.226562 28.992188 139.847656 -14.519531 165.984375 -69.289062 C 174.339844 -86.796875 180.597656 -105.25 189.027344 -122.71875 C 197.460938 -140.191406 208.398438 -156.996094 224.035156 -168.476562 C 241.535156 -181.324219 263.449219 -186.484375 284.921875 -189.675781 C 306.394531 -192.867188 328.308594 -194.4375 348.890625 -201.339844 C 363.433594 -206.214844 376.96875 -213.644531 391.121094 -219.554688 C 405.269531 -225.46875 420.535156 -229.914062 435.785156 -228.328125 C 450.519531 -226.792969 464.125 -219.746094 476.441406 -211.523438 C 488.761719 -203.300781 500.21875 -193.769531 513.027344 -186.332031 Z M 513.027344 -186.332031 " fill-opacity="1" fill-rule="nonzero"/></g></g></g></g></g></g><g mask="url(#e3089bf8d4)"><g transform="matrix(1, 0, 0, 1, 0, 0.000000000000039746)"><g clip-path="url(#b98af063be)"><g clip-path="url(#0059d37b52)"><g clip-path="url(#a4118a7e66)"><g clip-path="url(#6cab2ae348)"><path fill="#c0caf8" d="M 566.199219 -238.78125 C 583.800781 -228.5625 603.226562 -221.929688 621.496094 -212.964844 C 639.769531 -204 657.480469 -192.070312 667.8125 -174.542969 C 678.855469 -155.8125 680.171875 -132.773438 677.148438 -111.25 C 674.125 -89.726562 667.125 -68.980469 662.507812 -47.742188 C 648.832031 15.195312 656.269531 81.601562 639.746094 143.851562 C 629.925781 180.839844 610.886719 216.484375 580.515625 239.777344 C 559.582031 255.835938 534.453125 265.257812 511.054688 277.449219 C 499.351562 283.546875 487.972656 290.410156 477.96875 299.007812 C 467.964844 307.605469 459.339844 318.015625 453.957031 330.058594 C 445.117188 349.847656 445.578125 372.480469 448.027344 394.019531 C 450.480469 415.554688 454.769531 437.125 453.019531 458.730469 C 450.972656 483.941406 440.539062 508.246094 424.441406 527.753906 C 408.34375 547.261719 386.730469 562 363.027344 570.839844 C 315.617188 588.519531 261.378906 582.152344 215.492188 560.789062 C 176.71875 542.738281 143.507812 514.921875 109.203125 489.382812 C 89.003906 474.347656 68.230469 459.96875 49.65625 442.976562 C 31.082031 425.980469 14.605469 406.074219 5.09375 382.773438 C -3.097656 362.699219 -5.855469 340.742188 -5.648438 319.066406 C -5.445312 297.390625 -2.367188 275.859375 0.738281 254.410156 C 9.601562 193.140625 19.074219 130.753906 46.566406 75.289062 C 77.964844 11.945312 131.140625 -38.738281 161.59375 -102.542969 C 171.328125 -122.941406 178.617188 -144.4375 188.441406 -164.792969 C 198.265625 -185.148438 211.011719 -204.722656 229.238281 -218.09375 C 249.640625 -233.058594 275.1875 -239.0625 300.226562 -242.773438 C 325.261719 -246.480469 350.8125 -248.300781 374.808594 -256.332031 C 391.761719 -262.007812 407.542969 -270.660156 424.039062 -277.542969 C 440.535156 -284.425781 458.332031 -289.601562 476.117188 -287.746094 C 493.296875 -285.953125 509.160156 -277.734375 523.527344 -268.148438 C 537.898438 -258.558594 551.261719 -247.453125 566.199219 -238.78125 Z M 566.199219 -238.78125 " fill-opacity="1" fill-rule="nonzero"/></g></g></g></g></g></g><g mask="url(#6667d3cf4c)"><g transform="matrix(1, 0, 0, 1, 211, 406)"><g clip-path="url(#c496b831a6)"><g clip-path="url(#db7fea18d0)"><g clip-path="url(#cbaf6b5732)"><g clip-path="url(#1973585779)"><path fill="#c0caf8" d="M 789.699219 254.691406 C 798.226562 269.921875 809.667969 283.292969 819.238281 297.886719 C 828.8125 312.480469 836.675781 329.019531 836.640625 346.472656 C 836.601562 365.125 827.503906 382.714844 815.863281 397.289062 C 804.222656 411.867188 789.984375 424.132812 777.289062 437.804688 C 739.675781 478.316406 716.140625 530.605469 676.722656 569.367188 C 653.304688 592.398438 623.664062 610.417969 591.058594 614.367188 C 568.582031 617.089844 545.910156 613.085938 523.300781 611.878906 C 512 611.277344 500.59375 611.378906 489.449219 613.363281 C 478.304688 615.347656 467.386719 619.273438 458.148438 625.820312 C 442.96875 636.574219 433.414062 653.492188 425.808594 670.46875 C 418.203125 687.445312 411.941406 705.246094 401.203125 720.4375 C 388.671875 738.160156 370.339844 751.558594 349.929688 758.941406 C 329.515625 766.324219 307.113281 767.777344 285.75 763.964844 C 243.015625 756.332031 205.753906 727.964844 181.210938 692.164062 C 160.476562 661.914062 148.117188 626.878906 133.949219 593.050781 C 125.613281 573.132812 116.558594 553.449219 110.273438 532.792969 C 103.988281 512.140625 100.527344 490.25 103.691406 468.890625 C 106.417969 450.488281 113.980469 433.070312 123.609375 417.152344 C 133.234375 401.234375 144.921875 386.675781 156.589844 372.1875 C 189.921875 330.808594 224.1875 288.867188 268.734375 259.902344 C 319.609375 226.820312 381.027344 212.59375 431.40625 178.757812 C 447.511719 167.941406 462.289062 155.246094 478.441406 144.5 C 494.59375 133.753906 512.5625 124.859375 531.867188 122.941406 C 553.472656 120.789062 574.960938 127.503906 595.066406 135.6875 C 615.171875 143.875 634.832031 153.679688 656.0625 158.21875 C 671.058594 161.421875 686.492188 161.921875 701.683594 164.035156 C 716.871094 166.148438 732.273438 170.09375 744.59375 179.226562 C 756.492188 188.042969 764.613281 201.035156 771.03125 214.386719 C 777.449219 227.734375 782.460938 241.769531 789.699219 254.691406 Z M 789.699219 254.691406 " fill-opacity="1" fill-rule="nonzero"/></g></g></g></g></g></g><g mask="url(#275c33b6da)"><g transform="matrix(1, 0, 0, 1, 758, 0.000000000000039746)"><g clip-path="url(#421670e21f)"><g clip-path="url(#347fa72016)"><g clip-path="url(#199d28b766)"><g clip-path="url(#25752be057)"><path fill="#c0caf8" d="M 584.71875 658.59375 C 569.207031 666.585938 555.441406 677.558594 540.523438 686.613281 C 525.601562 695.671875 508.800781 702.953125 491.359375 702.308594 C 472.722656 701.621094 455.460938 691.914062 441.296875 679.773438 C 427.136719 667.632812 415.375 652.972656 402.152344 639.8125 C 362.976562 600.808594 311.539062 575.464844 274.175781 534.722656 C 251.972656 510.515625 235 480.261719 232.1875 447.539062 C 230.25 424.980469 235.042969 402.460938 237.039062 379.910156 C 238.035156 368.632812 238.328125 357.234375 236.734375 346.027344 C 235.140625 334.820312 231.597656 323.769531 225.378906 314.308594 C 215.15625 298.765625 198.585938 288.625 181.882812 280.433594 C 165.183594 272.242188 147.609375 265.359375 132.804688 254.101562 C 115.523438 240.960938 102.773438 222.171875 96.109375 201.515625 C 89.441406 180.855469 88.769531 158.417969 93.328125 137.199219 C 102.441406 94.757812 132.09375 58.507812 168.726562 35.230469 C 199.683594 15.558594 235.125 4.429688 269.429688 -8.546875 C 289.621094 -16.1875 309.609375 -24.546875 330.472656 -30.109375 C 351.335938 -35.671875 373.332031 -38.367188 394.566406 -34.460938 C 412.863281 -31.09375 430.007812 -22.929688 445.578125 -12.753906 C 461.152344 -2.578125 475.292969 9.609375 489.367188 21.777344 C 529.558594 56.527344 570.28125 92.238281 597.675781 137.765625 C 628.964844 189.765625 641.039062 251.640625 673.097656 303.167969 C 683.347656 319.640625 695.519531 334.851562 705.695312 351.367188 C 715.871094 367.886719 724.132812 386.15625 725.382812 405.511719 C 726.777344 427.179688 719.320312 448.421875 710.4375 468.230469 C 701.554688 488.039062 691.070312 507.34375 685.796875 528.40625 C 682.070312 543.28125 681.035156 558.6875 678.390625 573.792969 C 675.75 588.898438 671.269531 604.152344 661.714844 616.148438 C 652.484375 627.734375 639.21875 635.398438 625.652344 641.34375 C 612.089844 647.292969 597.886719 651.8125 584.71875 658.59375 Z M 584.71875 658.59375 " fill-opacity="1" fill-rule="nonzero"/></g></g></g></g></g></g><g mask="url(#ecb955b99f)"><g transform="matrix(1, 0, 0, 1, 211, 448)"><g clip-path="url(#3b4e98490a)"><g clip-path="url(#fc75f886fc)"><g clip-path="url(#f7c2d1d304)"><g clip-path="url(#aa51fa8a7a)"><path fill="#c0caf8" d="M 789.699219 255.179688 C 798.226562 270.410156 809.667969 283.78125 819.238281 298.375 C 828.8125 312.96875 836.675781 329.507812 836.640625 346.960938 C 836.601562 365.613281 827.503906 383.203125 815.863281 397.777344 C 804.222656 412.355469 789.984375 424.621094 777.289062 438.292969 C 739.675781 478.804688 716.140625 531.09375 676.722656 569.855469 C 653.304688 592.886719 623.664062 610.90625 591.058594 614.855469 C 568.582031 617.578125 545.910156 613.574219 523.300781 612.367188 C 512 611.765625 500.59375 611.867188 489.449219 613.851562 C 478.304688 615.835938 467.386719 619.761719 458.148438 626.308594 C 442.96875 637.0625 433.414062 653.976562 425.808594 670.953125 C 418.203125 687.933594 411.941406 705.734375 401.203125 720.921875 C 388.671875 738.648438 370.339844 752.046875 349.929688 759.429688 C 329.515625 766.8125 307.113281 768.265625 285.75 764.453125 C 243.015625 756.820312 205.753906 728.453125 181.210938 692.652344 C 160.476562 662.402344 148.117188 627.367188 133.949219 593.539062 C 125.613281 573.621094 116.558594 553.9375 110.273438 533.28125 C 103.988281 512.625 100.527344 490.738281 103.691406 469.378906 C 106.417969 450.976562 113.980469 433.558594 123.609375 417.640625 C 133.234375 401.722656 144.921875 387.164062 156.589844 372.675781 C 189.921875 331.296875 224.1875 289.355469 268.734375 260.390625 C 319.609375 227.308594 381.027344 213.082031 431.40625 179.246094 C 447.511719 168.429688 462.289062 155.734375 478.441406 144.988281 C 494.59375 134.242188 512.5625 125.347656 531.867188 123.429688 C 553.472656 121.277344 574.960938 127.992188 595.066406 136.175781 C 615.171875 144.363281 634.832031 154.167969 656.0625 158.707031 C 671.058594 161.910156 686.492188 162.410156 701.683594 164.523438 C 716.871094 166.636719 732.273438 170.582031 744.59375 179.714844 C 756.492188 188.53125 764.613281 201.523438 771.03125 214.875 C 777.449219 228.222656 782.460938 242.257812 789.699219 255.179688 Z M 789.699219 255.179688 " fill-opacity="1" fill-rule="nonzero"/></g></g></g></g></g></g><g mask="url(#4cd4e4284c)"><g transform="matrix(1, 0, 0, 1, 828, 0.000000000000039746)"><g clip-path="url(#42a57ae455)"><g clip-path="url(#bca15dda67)"><g clip-path="url(#3b53e5333c)"><g clip-path="url(#4a2ec3d24c)"><path fill="#c0caf8" d="M 584.824219 658.59375 C 569.308594 666.585938 555.542969 677.558594 540.625 686.613281 C 525.707031 695.671875 508.902344 702.953125 491.460938 702.308594 C 472.824219 701.621094 455.5625 691.914062 441.398438 679.773438 C 427.238281 667.632812 415.476562 652.972656 402.257812 639.8125 C 363.078125 600.808594 311.644531 575.464844 274.277344 534.722656 C 252.078125 510.515625 235.101562 480.261719 232.292969 447.539062 C 230.351562 424.980469 235.148438 402.460938 237.140625 379.910156 C 238.136719 368.632812 238.429688 357.234375 236.835938 346.027344 C 235.242188 334.820312 231.699219 323.769531 225.480469 314.308594 C 215.261719 298.765625 198.6875 288.625 181.984375 280.433594 C 165.285156 272.242188 147.714844 265.359375 132.90625 254.101562 C 115.628906 240.960938 102.875 222.171875 96.210938 201.515625 C 89.542969 180.855469 88.871094 158.417969 93.429688 137.199219 C 102.542969 94.757812 132.195312 58.507812 168.828125 35.230469 C 199.785156 15.558594 235.226562 4.429688 269.53125 -8.546875 C 289.722656 -16.1875 309.710938 -24.546875 330.574219 -30.109375 C 351.4375 -35.671875 373.433594 -38.367188 394.667969 -34.460938 C 412.964844 -31.09375 430.109375 -22.929688 445.679688 -12.753906 C 461.253906 -2.578125 475.394531 9.609375 489.46875 21.777344 C 529.660156 56.527344 570.382812 92.238281 597.777344 137.765625 C 629.066406 189.765625 641.144531 251.640625 673.199219 303.167969 C 683.449219 319.640625 695.621094 334.851562 705.796875 351.367188 C 715.972656 367.886719 724.234375 386.15625 725.484375 405.511719 C 726.878906 427.179688 719.421875 448.421875 710.539062 468.230469 C 701.65625 488.039062 691.175781 507.34375 685.898438 528.40625 C 682.171875 543.28125 681.136719 558.6875 678.492188 573.792969 C 675.851562 588.898438 671.371094 604.152344 661.816406 616.148438 C 652.589844 627.734375 639.320312 635.398438 625.753906 641.34375 C 612.191406 647.292969 597.988281 651.8125 584.824219 658.59375 Z M 584.824219 658.59375 " fill-opacity="1" fill-rule="nonzero"/></g></g></g></g></g></g></svg>