<svg xmlns="http://www.w3.org/2000/svg" xmlns:xlink="http://www.w3.org/1999/xlink" width="500" zoomAndPan="magnify" viewBox="0 0 375 374.999991" height="500" preserveAspectRatio="xMidYMid meet" version="1.0"><defs><g/><clipPath id="b11111d923"><path d="M 15.015625 25.207031 L 369.765625 25.207031 L 369.765625 172 L 15.015625 172 Z M 15.015625 25.207031 " clip-rule="nonzero"/></clipPath><clipPath id="fcb4120ee7"><path d="M 308 56 L 369.765625 56 L 369.765625 132 L 308 132 Z M 308 56 " clip-rule="nonzero"/></clipPath><clipPath id="4515088bb8"><path d="M 71 25.207031 L 82 25.207031 L 82 49 L 71 49 Z M 71 25.207031 " clip-rule="nonzero"/></clipPath><clipPath id="8281daacac"><path d="M 15.015625 54 L 20 54 L 20 71 L 15.015625 71 Z M 15.015625 54 " clip-rule="nonzero"/></clipPath></defs><g clip-path="url(#b11111d923)"><path fill="#eddbbb" d="M 331.53125 56.21875 C 331.53125 56.078125 331.460938 55.933594 331.460938 55.792969 C 331.742188 51.742188 331.035156 47.695312 331.105469 43.644531 C 331.175781 40.234375 330.46875 36.894531 330.679688 33.484375 C 330.679688 33.34375 330.679688 33.199219 330.679688 33.058594 C 330.679688 32.488281 330.394531 32.207031 329.828125 32.207031 C 329.261719 32.207031 328.765625 32.207031 328.195312 32.207031 C 321.953125 32.277344 315.710938 32.277344 309.46875 32.488281 C 298.546875 32.917969 287.621094 32.277344 276.769531 32.917969 C 270.3125 33.269531 263.859375 32.773438 257.402344 33.34375 C 252.648438 33.769531 247.828125 33.269531 243.074219 33.699219 C 238.464844 34.125 233.78125 33.699219 229.101562 34.125 C 225.128906 34.480469 221.15625 34.125 217.183594 34.480469 C 212.925781 34.90625 208.671875 34.480469 204.414062 34.90625 C 200.230469 35.261719 196.042969 34.90625 191.859375 35.332031 C 187.601562 35.6875 183.347656 35.332031 179.089844 35.757812 C 175.257812 36.113281 171.429688 35.757812 167.527344 36.113281 C 163.34375 36.46875 159.15625 36.113281 154.972656 36.539062 C 151.210938 36.894531 147.382812 36.539062 143.621094 36.894531 C 139.792969 37.25 135.960938 36.894531 132.058594 37.320312 C 128.300781 37.675781 124.46875 37.320312 120.710938 37.675781 C 116.738281 38.03125 112.765625 37.675781 108.792969 38.101562 C 105.246094 38.457031 101.628906 38.316406 98.011719 38.457031 C 93.117188 38.671875 88.222656 38.882812 83.253906 38.957031 C 83.609375 36.46875 83.753906 33.980469 82.972656 31.566406 C 82.757812 30.855469 82.902344 30.074219 83.183594 29.433594 C 83.894531 27.941406 83.253906 26.949219 82.050781 26.167969 C 82.050781 25.667969 81.765625 25.386719 81.269531 25.386719 C 78.433594 26.238281 75.878906 27.660156 73.253906 29.007812 C 72.898438 29.007812 72.617188 29.078125 72.402344 29.433594 C 72.332031 31.566406 72.046875 33.699219 71.90625 35.828125 C 72.117188 33.699219 72.332031 31.566406 72.402344 29.433594 C 70.558594 29.933594 68.855469 30.925781 67.152344 31.707031 C 66.445312 32.0625 65.664062 32.277344 65.167969 32.988281 C 64.882812 32.988281 64.597656 33.058594 64.316406 33.058594 C 64.175781 33.058594 64.03125 33.199219 63.960938 33.34375 C 60.058594 34.761719 56.371094 36.539062 52.753906 38.527344 C 52.46875 38.527344 52.1875 38.601562 51.972656 38.882812 C 50.484375 39.097656 49.277344 40.234375 47.71875 40.304688 C 46.9375 40.019531 46.15625 40.164062 45.375 40.164062 C 41.6875 40.019531 38 40.730469 34.238281 40.589844 C 31.117188 40.445312 27.996094 41.15625 24.875 41.015625 C 24.734375 41.015625 24.589844 41.015625 24.449219 41.015625 C 23.882812 41.085938 23.667969 41.371094 23.597656 41.9375 C 23.386719 45.277344 22.960938 48.546875 23.316406 51.886719 C 22.890625 52.453125 22.179688 52.667969 21.542969 52.953125 C 20.832031 53.308594 20.050781 53.449219 19.554688 54.089844 C 19.128906 54.160156 18.703125 54.089844 18.421875 54.515625 C 17.851562 54.796875 17.214844 55.082031 16.503906 55.367188 C 15.9375 55.582031 15.726562 55.933594 15.726562 56.574219 C 15.867188 58.492188 15.441406 60.410156 15.15625 62.328125 C 15.015625 63.109375 15.015625 63.894531 15.441406 64.460938 C 16.859375 66.449219 17.355469 68.652344 17.710938 70.996094 C 17.710938 71.851562 18.207031 72.417969 18.632812 73.058594 C 18.917969 73.554688 19.34375 73.484375 19.769531 73.058594 C 20.832031 72.773438 21.894531 72.488281 22.960938 72.132812 C 23.101562 73.625 22.605469 75.046875 22.605469 76.46875 C 22.605469 81.15625 22.605469 85.847656 22.605469 90.605469 C 22.605469 91.03125 22.605469 91.386719 22.605469 91.816406 C 22.179688 92.808594 22.109375 93.875 22.179688 94.941406 C 22.25 100.269531 22.746094 105.527344 22.535156 110.855469 C 22.464844 112.347656 22.535156 113.910156 22.605469 115.402344 C 22.605469 115.6875 22.605469 115.898438 22.605469 116.183594 C 22.605469 122.292969 22.605469 128.476562 22.535156 134.585938 C 22.535156 137.285156 22.535156 139.914062 22.535156 142.613281 C 22.535156 144.035156 22.535156 143.890625 23.882812 143.964844 C 27.570312 144.035156 31.257812 143.253906 35.019531 143.464844 C 35.089844 145.3125 35.230469 147.160156 35.230469 149.078125 C 35.304688 155.046875 35.445312 161.085938 35.65625 167.054688 C 35.730469 168.121094 35.941406 168.546875 37.078125 168.6875 C 40.199219 169.042969 43.246094 169.46875 46.367188 169.96875 C 47.148438 170.109375 47.929688 170.25 48.710938 170.179688 C 51.050781 169.96875 53.25 169.539062 55.519531 168.757812 C 58.144531 167.835938 60.839844 167.125 63.535156 166.414062 C 65.59375 165.917969 67.648438 165.492188 69.847656 165.703125 C 73.394531 166.058594 76.234375 167.835938 79 169.824219 C 81.765625 171.742188 84.675781 172.097656 87.867188 170.890625 C 89 170.464844 90.136719 170.109375 91.269531 169.894531 C 93.683594 169.398438 96.023438 169.613281 98.4375 169.683594 C 104.464844 169.824219 110.425781 169.46875 116.242188 167.976562 C 121.773438 166.554688 127.378906 165.5625 133.125 165.417969 C 134.046875 165.417969 134.96875 165.207031 135.890625 164.921875 C 139.648438 163.785156 143.480469 163.074219 147.382812 162.292969 C 152.914062 161.226562 158.449219 160.234375 163.839844 158.386719 C 165.542969 157.816406 167.03125 156.964844 168.378906 155.613281 C 171.785156 152.347656 175.402344 149.363281 179.230469 146.519531 C 180.792969 145.382812 182.425781 144.886719 184.480469 145.242188 C 187.460938 145.738281 190.441406 145.953125 193.417969 146.308594 C 198.667969 146.949219 203.988281 147.585938 209.238281 148.15625 C 211.152344 148.367188 212.996094 148.792969 214.914062 148.085938 C 215.410156 147.871094 216.117188 147.941406 216.6875 147.941406 C 221.226562 148.085938 225.480469 147.019531 229.738281 145.667969 C 233.78125 144.390625 237.753906 142.898438 242.011719 142.472656 C 243.785156 142.257812 245.414062 142.328125 246.976562 143.324219 C 247.472656 143.679688 248.039062 143.890625 248.679688 143.890625 C 254.707031 143.964844 260.808594 143.75 266.554688 141.902344 C 274.214844 139.488281 281.875 137.070312 289.679688 135.082031 C 291.59375 134.726562 293.507812 134.726562 295.425781 134.726562 C 296.984375 134.726562 298.617188 134.65625 300.175781 134.65625 C 300.957031 134.65625 301.523438 134.160156 302.164062 133.875 C 304.148438 132.878906 306.066406 131.8125 308.191406 131.175781 C 310.320312 130.890625 312.378906 130.605469 314.507812 130.324219 C 318.054688 129.824219 321.671875 129.96875 325.289062 129.894531 C 327.488281 129.894531 329.6875 129.824219 331.886719 130.179688 C 335.289062 130.75 338.765625 131.03125 342.171875 131.601562 C 343.234375 131.742188 343.660156 131.460938 344.015625 130.394531 C 346.570312 122.578125 349.902344 115.117188 353.308594 107.65625 C 355.292969 103.324219 357.066406 98.847656 357.492188 93.945312 C 357.636719 92.167969 358.273438 90.394531 359.335938 88.902344 C 360.1875 87.695312 360.332031 86.558594 359.976562 85.136719 C 359.125 81.511719 359.835938 78.386719 363.167969 76.253906 C 363.808594 75.828125 364.304688 75.332031 364.941406 74.976562 C 365.722656 74.550781 366.078125 73.980469 366.359375 73.199219 C 368.773438 67.800781 368.984375 61.972656 369.765625 56.21875 C 356.996094 56.21875 344.226562 56.21875 331.53125 56.21875 Z M 300.175781 130.25 C 300.175781 129.539062 300.175781 128.832031 300.175781 128.121094 C 300.175781 128.832031 300.175781 129.539062 300.175781 130.25 Z M 62.328125 70.5 C 62.257812 69.078125 62.117188 67.660156 62.046875 66.167969 C 61.054688 66.449219 60.058594 66.523438 58.996094 66.523438 C 58.214844 66.523438 57.433594 66.523438 56.726562 66.523438 C 57.507812 66.523438 58.285156 66.523438 58.996094 66.523438 C 59.988281 66.523438 61.054688 66.449219 62.046875 66.167969 C 62.1875 67.585938 62.328125 69.078125 62.328125 70.5 Z M 54.242188 90.679688 C 52.894531 90.75 51.546875 90.820312 50.199219 90.890625 C 51.476562 90.820312 52.824219 90.75 54.242188 90.679688 Z M 62.824219 90.605469 C 62.96875 94.300781 62.824219 97.925781 62.96875 101.617188 C 62.898438 97.925781 63.039062 94.230469 62.824219 90.605469 C 60.699219 90.535156 58.640625 90.605469 56.511719 90.605469 C 58.640625 90.535156 60.769531 90.535156 62.824219 90.605469 Z M 323.515625 81.796875 C 317.769531 81.796875 312.023438 81.796875 306.277344 81.726562 C 312.023438 81.796875 317.769531 81.867188 323.515625 81.796875 Z M 63.324219 64.957031 C 63.324219 62.328125 63.039062 59.699219 62.898438 57.074219 C 62.96875 59.699219 63.324219 62.328125 63.324219 64.957031 C 65.238281 64.675781 67.152344 64.675781 69.070312 64.601562 C 67.082031 64.675781 65.238281 64.675781 63.324219 64.957031 Z M 35.800781 65.8125 C 36.507812 65.457031 37.21875 65.171875 38 64.816406 C 37.21875 65.101562 36.507812 65.457031 35.800781 65.8125 Z M 332.167969 83.003906 C 321.742188 83.003906 311.386719 82.863281 300.957031 82.933594 C 311.386719 82.863281 321.742188 83.003906 332.167969 83.003906 C 332.167969 84.566406 332.242188 86.058594 332.242188 87.621094 C 332.242188 86.058594 332.167969 84.496094 332.167969 83.003906 Z M 331.460938 57.855469 C 331.460938 58.066406 331.460938 58.351562 331.460938 58.5625 C 331.671875 58.707031 331.742188 58.917969 331.742188 59.132812 C 331.671875 58.917969 331.601562 58.777344 331.460938 58.5625 C 331.460938 58.351562 331.460938 58.066406 331.460938 57.855469 Z M 52.398438 142.398438 C 56.015625 142.1875 59.632812 142.046875 63.25 142.1875 C 63.324219 141.832031 63.394531 141.546875 63.394531 141.191406 C 63.394531 132.597656 63.324219 124 63.324219 115.402344 C 59.632812 115.828125 56.015625 115.6875 52.328125 115.6875 C 56.015625 115.617188 59.632812 115.757812 63.324219 115.402344 C 63.324219 124 63.394531 132.597656 63.394531 141.191406 C 63.394531 141.546875 63.324219 141.832031 63.324219 142.1875 C 59.632812 142.046875 56.015625 142.1875 52.398438 142.398438 Z M 64.882812 141.832031 C 64.597656 142.1875 64.246094 142.1875 63.890625 142.1875 C 64.246094 142.257812 64.597656 142.1875 64.882812 141.832031 C 69.421875 141.902344 73.964844 141.617188 78.503906 141.40625 C 73.964844 141.691406 69.421875 141.902344 64.882812 141.832031 Z M 332.523438 110.640625 C 328.195312 110.214844 323.871094 110.285156 319.542969 110.285156 C 323.800781 110.285156 328.195312 110.144531 332.523438 110.640625 C 332.523438 110.214844 332.523438 109.789062 332.523438 109.363281 C 332.523438 109.789062 332.523438 110.214844 332.523438 110.640625 C 332.523438 112.207031 332.59375 113.695312 332.59375 115.261719 C 332.59375 113.695312 332.523438 112.132812 332.523438 110.640625 Z M 332.523438 110.640625 " fill-opacity="1" fill-rule="nonzero"/></g><path fill="#ffede1" d="M 64.882812 141.832031 C 70.914062 141.902344 77.011719 141.40625 83.042969 141.261719 C 86.800781 141.191406 90.632812 141.261719 94.390625 140.910156 C 98.292969 140.554688 102.265625 140.835938 106.167969 140.480469 C 109.925781 140.125 113.757812 140.410156 117.519531 140.054688 C 121.417969 139.699219 125.390625 139.984375 129.292969 139.628906 C 133.125 139.273438 137.023438 139.558594 140.855469 139.203125 C 144.542969 138.847656 148.160156 139.132812 151.78125 138.847656 C 155.753906 138.492188 159.796875 138.777344 163.769531 138.421875 C 167.101562 138.136719 170.4375 138.351562 173.699219 138.066406 C 177.8125 137.710938 181.925781 137.925781 186.042969 137.640625 C 189.871094 137.355469 193.773438 137.570312 197.605469 137.285156 C 201.859375 136.929688 206.117188 137.214844 210.371094 136.859375 C 214.414062 136.503906 218.53125 136.859375 222.503906 136.503906 C 227.253906 136.078125 231.9375 136.433594 236.691406 136.078125 C 241.160156 135.722656 245.628906 136.078125 250.027344 135.722656 C 255.417969 135.296875 260.808594 135.722656 266.199219 135.296875 C 271.945312 134.871094 277.621094 135.082031 283.367188 134.941406 C 284.996094 134.871094 286.628906 134.441406 288.332031 134.585938 C 288.828125 134.65625 289.394531 134.441406 289.820312 134.871094 C 282.019531 136.859375 274.355469 139.273438 266.695312 141.691406 C 260.878906 143.535156 254.847656 143.75 248.820312 143.679688 C 248.179688 143.679688 247.683594 143.464844 247.117188 143.109375 C 245.558594 142.117188 243.925781 142.046875 242.152344 142.257812 C 237.894531 142.683594 233.851562 144.175781 229.878906 145.457031 C 225.625 146.804688 221.296875 147.871094 216.828125 147.730469 C 216.261719 147.730469 215.550781 147.65625 215.054688 147.871094 C 213.140625 148.652344 211.222656 148.15625 209.378906 147.941406 C 204.128906 147.375 198.808594 146.734375 193.5625 146.09375 C 190.582031 145.738281 187.601562 145.527344 184.621094 145.027344 C 182.636719 144.675781 181.003906 145.171875 179.375 146.308594 C 175.542969 149.078125 171.925781 152.132812 168.519531 155.402344 C 167.171875 156.679688 165.683594 157.535156 163.980469 158.171875 C 158.589844 160.019531 153.054688 161.015625 147.523438 162.082031 C 143.691406 162.863281 139.792969 163.574219 136.03125 164.710938 C 135.179688 164.992188 134.1875 165.136719 133.265625 165.207031 C 127.519531 165.347656 121.914062 166.34375 116.382812 167.765625 C 110.566406 169.257812 104.605469 169.613281 98.578125 169.46875 C 96.164062 169.398438 93.824219 169.183594 91.414062 169.683594 C 90.207031 169.964844 89.074219 170.25 88.007812 170.675781 C 84.886719 171.886719 81.90625 171.601562 79.140625 169.613281 C 76.375 167.621094 73.464844 165.847656 69.992188 165.492188 C 67.863281 165.277344 65.734375 165.703125 63.675781 166.203125 C 60.980469 166.839844 58.285156 167.550781 55.660156 168.546875 C 53.460938 169.328125 51.191406 169.753906 48.851562 169.964844 C 48.070312 170.039062 47.292969 169.894531 46.511719 169.753906 C 43.390625 169.328125 40.339844 168.828125 37.21875 168.476562 C 36.082031 168.332031 35.871094 167.835938 35.800781 166.839844 C 35.585938 160.871094 35.445312 154.832031 35.375 148.867188 C 35.375 147.019531 35.230469 145.171875 35.160156 143.253906 C 38.777344 142.542969 42.398438 142.753906 46.085938 142.613281 C 51.832031 142.328125 57.578125 141.832031 63.394531 142.046875 C 63.820312 142.1875 64.386719 142.398438 64.882812 141.832031 Z M 64.882812 141.832031 " fill-opacity="1" fill-rule="nonzero"/><g clip-path="url(#fcb4120ee7)"><path fill="#ffede1" d="M 331.390625 118.953125 C 332.664062 118.671875 332.523438 117.605469 332.523438 116.753906 C 332.59375 114.691406 332.523438 112.703125 332.453125 110.640625 C 332.453125 110.214844 332.453125 109.789062 332.453125 109.363281 C 332.453125 108.652344 332.523438 107.871094 332.523438 107.160156 C 332.59375 100.625 332.027344 94.160156 332.167969 87.621094 C 332.242188 86.058594 332.167969 84.566406 332.097656 83.003906 C 332.097656 82.578125 332.097656 82.152344 332.097656 81.726562 C 332.097656 81.015625 332.167969 80.234375 332.167969 79.523438 C 332.167969 73.699219 331.601562 67.800781 331.742188 61.972656 C 331.742188 61.40625 331.671875 60.765625 331.671875 60.199219 C 331.742188 59.628906 331.957031 59.0625 331.460938 58.5625 C 331.460938 57.78125 331.460938 57 331.53125 56.21875 C 344.300781 56.21875 357.066406 56.148438 369.765625 56.148438 C 368.984375 61.832031 368.773438 67.730469 366.359375 73.128906 C 366.003906 73.910156 365.652344 74.480469 364.941406 74.90625 C 364.304688 75.261719 363.734375 75.757812 363.167969 76.183594 C 359.835938 78.316406 359.125 81.441406 359.976562 85.066406 C 360.332031 86.484375 360.1875 87.621094 359.335938 88.832031 C 358.273438 90.324219 357.707031 92.097656 357.492188 93.875 C 357.066406 98.777344 355.292969 103.183594 353.308594 107.585938 C 349.902344 115.046875 346.570312 122.507812 344.015625 130.324219 C 343.660156 131.316406 343.234375 131.671875 342.171875 131.53125 C 338.765625 131.03125 335.289062 130.675781 331.886719 130.109375 C 329.6875 129.753906 327.488281 129.824219 325.289062 129.824219 C 321.671875 129.894531 318.125 129.683594 314.507812 130.25 C 312.378906 130.535156 310.320312 130.820312 308.191406 131.105469 C 307.910156 130.75 308.191406 130.675781 308.476562 130.535156 C 314.789062 127.410156 320.960938 124.140625 327.417969 121.226562 C 328.765625 120.519531 330.253906 120.019531 331.390625 118.953125 Z M 331.390625 118.953125 " fill-opacity="1" fill-rule="nonzero"/></g><path fill="#db9970" d="M 63.25 114.195312 C 63.25 111.210938 63.464844 108.226562 63.179688 105.242188 C 62.753906 100.339844 63.039062 95.4375 62.824219 90.605469 C 62.824219 90.179688 62.824219 89.753906 62.824219 89.398438 C 63.039062 83.574219 62.328125 77.746094 62.402344 71.921875 C 62.402344 70.074219 62.257812 68.085938 62.117188 66.167969 C 62.117188 65.738281 62.117188 65.386719 62.117188 64.957031 C 62.328125 61.40625 61.621094 57.925781 61.761719 54.445312 C 61.832031 53.378906 61.550781 53.308594 60.554688 53.589844 C 60.128906 53.734375 59.777344 54.089844 59.066406 53.945312 C 59.421875 52.667969 59.703125 51.460938 60.128906 50.179688 C 61.761719 44.996094 63.394531 39.808594 65.023438 34.621094 C 65.167969 34.054688 65.523438 33.484375 65.378906 32.917969 C 65.875 32.207031 66.65625 31.992188 67.367188 31.636719 C 69.070312 30.855469 70.769531 29.933594 72.617188 29.363281 C 72.472656 32.207031 72.117188 35.046875 71.90625 37.890625 C 71.765625 39.878906 71.339844 41.867188 71.410156 43.859375 C 71.480469 45.421875 70.984375 46.914062 70.984375 48.40625 C 70.984375 49.113281 70.488281 49.257812 69.992188 49.46875 C 68.21875 50.179688 66.445312 51.035156 64.671875 51.742188 C 62.96875 52.453125 62.96875 52.453125 62.898438 54.371094 C 62.753906 57.925781 63.394531 61.40625 63.394531 64.886719 C 63.394531 65.3125 63.394531 65.738281 63.394531 66.09375 C 63.109375 67.871094 63.75 69.648438 63.75 71.425781 C 63.605469 77.390625 64.316406 83.289062 64.246094 89.257812 C 64.246094 89.683594 64.246094 90.109375 64.246094 90.464844 C 64.386719 98.351562 64.527344 106.167969 64.671875 114.050781 C 64.671875 114.480469 64.671875 114.90625 64.671875 115.332031 C 64.671875 118.386719 64.527344 121.371094 64.882812 124.425781 C 65.167969 126.839844 64.953125 129.328125 64.953125 131.8125 C 64.953125 135.152344 64.953125 138.421875 64.953125 141.761719 C 64.457031 142.328125 63.890625 142.046875 63.324219 142.046875 C 63.394531 141.691406 63.464844 141.40625 63.394531 141.050781 C 63.394531 132.453125 63.324219 123.855469 63.324219 115.261719 C 63.25 114.976562 63.25 114.621094 63.25 114.195312 Z M 63.25 114.195312 " fill-opacity="1" fill-rule="nonzero"/><path fill="#db9970" d="M 23.457031 51.816406 C 25.089844 51.460938 26.507812 50.535156 28.066406 49.96875 C 28.917969 49.613281 29.699219 49.113281 30.550781 48.757812 C 31.117188 48.546875 31.683594 47.835938 32.324219 48.40625 C 32.820312 48.902344 32.324219 49.542969 32.183594 50.109375 C 30.410156 56.289062 28.636719 62.472656 26.933594 68.722656 C 26.578125 69.859375 26.082031 70.785156 24.804688 71.140625 C 24.09375 71.351562 23.386719 71.566406 22.890625 72.207031 C 21.824219 72.488281 20.761719 72.773438 19.695312 73.128906 C 19.625 72.84375 19.34375 72.632812 19.34375 72.417969 C 19.273438 68.15625 19.128906 63.894531 19.484375 59.628906 C 19.625 57.78125 19.695312 55.933594 19.625 54.089844 C 20.121094 53.449219 20.902344 53.308594 21.613281 52.953125 C 22.25 52.667969 22.960938 52.453125 23.457031 51.816406 Z M 23.457031 51.816406 " fill-opacity="1" fill-rule="nonzero"/><path fill="#db9970" d="M 64.101562 33.34375 C 64.316406 34.550781 63.75 35.542969 63.464844 36.609375 C 61.691406 42.152344 59.847656 47.695312 58.355469 53.378906 C 58.074219 54.371094 57.648438 55.152344 56.511719 55.507812 C 55.234375 55.933594 54.101562 56.859375 52.539062 57.214844 C 52.753906 52.878906 52.398438 48.6875 52.894531 44.496094 C 53.109375 42.507812 52.964844 40.519531 52.964844 38.527344 C 56.511719 36.539062 60.203125 34.761719 64.101562 33.34375 Z M 64.101562 33.34375 " fill-opacity="1" fill-rule="nonzero"/><path fill="#db9970" d="M 52.113281 38.882812 C 52.113281 44.285156 51.476562 49.613281 51.6875 55.011719 C 51.6875 55.792969 51.476562 56.574219 51.40625 57.355469 C 51.335938 57.78125 51.121094 58.066406 50.765625 58.28125 C 47.71875 59.773438 44.738281 61.335938 41.6875 62.828125 C 41.191406 62.117188 41.402344 61.621094 41.617188 61.050781 C 43.390625 55.011719 45.09375 48.972656 46.867188 42.863281 C 47.148438 41.9375 47.503906 41.085938 47.929688 40.304688 C 49.417969 40.234375 50.625 39.097656 52.113281 38.882812 Z M 52.113281 38.882812 " fill-opacity="1" fill-rule="nonzero"/><g clip-path="url(#4515088bb8)"><path fill="#db9970" d="M 81.339844 25.3125 C 80.207031 29.578125 79.070312 33.769531 77.933594 38.03125 C 77.367188 40.234375 76.730469 42.367188 76.160156 44.566406 C 75.59375 46.769531 74.53125 47.695312 71.90625 48.050781 C 72.191406 44.285156 72.402344 40.519531 72.828125 36.753906 C 73.113281 34.195312 73.183594 31.566406 73.324219 29.007812 C 75.878906 27.585938 78.503906 26.167969 81.339844 25.3125 Z M 81.339844 25.3125 " fill-opacity="1" fill-rule="nonzero"/></g><path fill="#db9970" d="M 83.253906 38.957031 C 83.253906 39.027344 83.253906 39.097656 83.253906 39.167969 C 83.824219 41.9375 82.332031 43.289062 79.992188 44.210938 C 79.285156 44.496094 78.574219 44.996094 77.863281 45.277344 C 77.15625 45.5625 76.871094 45.277344 77.011719 44.566406 C 77.226562 43.644531 77.4375 42.792969 77.722656 41.867188 C 79.210938 36.683594 80.417969 31.351562 82.121094 26.167969 C 83.328125 26.878906 83.894531 27.871094 83.183594 29.363281 C 82.902344 30.003906 82.6875 30.785156 82.972656 31.496094 C 83.824219 33.980469 83.609375 36.46875 83.253906 38.957031 Z M 83.253906 38.957031 " fill-opacity="1" fill-rule="nonzero"/><g clip-path="url(#8281daacac)"><path fill="#db9970" d="M 17.78125 70.925781 C 17.425781 68.652344 16.929688 66.378906 15.511719 64.390625 C 15.085938 63.820312 15.085938 63.039062 15.226562 62.257812 C 15.511719 60.339844 16.007812 58.492188 15.796875 56.503906 C 15.726562 55.863281 16.007812 55.507812 16.574219 55.296875 C 17.285156 55.011719 17.921875 54.726562 18.5625 54.445312 C 19.199219 55.011719 18.988281 55.792969 18.988281 56.503906 C 18.988281 59.628906 18.421875 62.683594 18.5625 65.8125 C 18.632812 66.664062 18.5625 67.515625 18.5625 68.367188 C 18.492188 69.292969 18.421875 70.214844 17.78125 70.925781 Z M 17.78125 70.925781 " fill-opacity="1" fill-rule="nonzero"/></g><path fill="#db9970" d="M 34.523438 66.167969 C 34.878906 63.609375 35.230469 61.050781 35.515625 58.492188 C 35.871094 56.078125 36.152344 53.660156 36.507812 51.246094 C 36.652344 49.898438 36.792969 48.476562 37.003906 47.125 C 37.148438 46.273438 37.359375 45.492188 38.351562 45.066406 C 40.550781 44.140625 42.679688 43.074219 44.878906 42.082031 C 45.234375 41.9375 45.589844 41.65625 45.945312 42.082031 C 46.226562 42.367188 46.015625 42.71875 45.945312 43.003906 C 44.171875 49.1875 42.324219 55.4375 40.625 61.691406 C 40.199219 63.253906 39.417969 64.25 37.925781 64.816406 C 37.21875 65.101562 36.507812 65.457031 35.730469 65.8125 C 35.375 65.953125 34.949219 66.023438 34.523438 66.167969 Z M 34.523438 66.167969 " fill-opacity="1" fill-rule="nonzero"/><path fill="#db9970" d="M 36.011719 46.414062 C 36.367188 48.476562 35.800781 50.324219 35.585938 52.242188 C 35.160156 56.007812 34.59375 59.699219 34.097656 63.464844 C 33.957031 64.460938 33.8125 65.457031 33.671875 66.378906 C 33.601562 66.734375 33.457031 67.019531 33.175781 67.160156 C 31.332031 68.011719 29.484375 68.867188 27.289062 69.859375 C 28.136719 66.875 28.847656 64.320312 29.558594 61.691406 C 30.761719 57.5 32.039062 53.308594 33.175781 49.042969 C 33.601562 47.339844 33.671875 47.054688 36.011719 46.414062 Z M 36.011719 46.414062 " fill-opacity="1" fill-rule="nonzero"/><path fill="#dec9a6" d="M 331.390625 118.953125 C 330.253906 120.019531 328.765625 120.519531 327.417969 121.15625 C 321.03125 124.070312 314.789062 127.410156 308.476562 130.464844 C 308.265625 130.605469 307.910156 130.675781 308.191406 131.03125 C 306.066406 131.671875 304.148438 132.808594 302.164062 133.734375 C 301.523438 134.015625 300.957031 134.515625 300.175781 134.515625 C 300.175781 131.671875 299.964844 128.757812 300.25 125.917969 C 300.460938 123.714844 300.390625 121.441406 300.886719 119.238281 C 301.097656 118.457031 301.453125 118.171875 302.234375 118.171875 C 307.414062 118.171875 312.589844 117.890625 317.769531 118.246094 C 321.671875 118.527344 325.574219 118.386719 329.472656 118.527344 C 330.183594 118.597656 330.890625 118.386719 331.390625 118.953125 Z M 331.390625 118.953125 " fill-opacity="1" fill-rule="nonzero"/><path fill="#dec9a6" d="M 62.824219 89.328125 C 62.824219 89.753906 62.824219 90.179688 62.824219 90.535156 C 57.152344 90.394531 51.40625 90.820312 45.730469 91.03125 C 40.695312 91.316406 35.730469 91.246094 30.691406 91.386719 C 27.996094 91.460938 25.300781 92.027344 22.535156 91.816406 C 22.535156 91.386719 22.535156 91.03125 22.535156 90.605469 C 26.152344 90.605469 29.839844 90.820312 33.457031 90.535156 C 37.855469 90.25 42.183594 90.464844 46.582031 90.109375 C 49.632812 89.894531 52.683594 90.109375 55.734375 89.753906 C 58.074219 89.46875 60.484375 89.46875 62.824219 89.328125 Z M 62.824219 89.328125 " fill-opacity="1" fill-rule="nonzero"/><path fill="#dec9a6" d="M 63.25 114.195312 C 63.25 114.621094 63.25 114.976562 63.25 115.402344 C 58.355469 115.96875 53.460938 115.472656 48.566406 115.828125 C 39.914062 116.46875 31.1875 115.96875 22.535156 116.113281 C 22.535156 115.828125 22.535156 115.617188 22.535156 115.332031 C 22.605469 115.332031 22.675781 115.332031 22.746094 115.332031 C 31.683594 115.617188 40.625 114.90625 49.5625 114.832031 C 53.460938 114.761719 57.363281 114.621094 61.265625 114.550781 C 62.046875 114.621094 62.613281 114.265625 63.25 114.195312 Z M 63.25 114.195312 " fill-opacity="1" fill-rule="nonzero"/><path fill="#dec9a6" d="M 63.324219 66.167969 C 63.324219 65.738281 63.324219 65.3125 63.324219 64.957031 C 67.152344 64.390625 70.984375 64.886719 74.8125 64.175781 C 74.957031 64.175781 75.097656 64.175781 75.238281 64.175781 C 79.210938 64.460938 83.183594 63.964844 87.15625 63.679688 C 90.773438 63.394531 94.464844 63.820312 98.082031 63.039062 C 98.222656 63.039062 98.363281 63.039062 98.507812 63.039062 C 102.976562 63.324219 107.375 62.683594 111.84375 62.542969 C 115.320312 62.402344 118.867188 62.542969 122.339844 62.117188 C 125.035156 61.832031 127.660156 62.046875 130.285156 61.761719 C 133.976562 61.40625 137.734375 61.691406 141.421875 61.335938 C 144.6875 60.980469 147.949219 61.335938 151.140625 60.980469 C 155.46875 60.554688 159.796875 60.980469 164.050781 60.554688 C 168.308594 60.128906 172.5625 60.625 176.75 60.199219 C 182.351562 59.699219 187.957031 60.269531 193.488281 59.773438 C 199.378906 59.273438 205.195312 59.773438 211.011719 59.417969 C 222.007812 58.777344 233.070312 59.417969 244.136719 58.992188 C 258.679688 58.421875 273.292969 58.777344 287.835938 58.707031 C 302.375 58.5625 316.988281 58.707031 331.53125 58.707031 C 332.027344 59.203125 331.816406 59.773438 331.742188 60.339844 C 331.601562 60.339844 331.460938 60.339844 331.316406 60.339844 C 316.28125 60.339844 301.242188 60.199219 286.132812 60.339844 C 271.023438 60.484375 255.914062 59.984375 240.804688 60.625 C 230.945312 61.050781 221.011719 60.410156 211.082031 61.050781 C 204.484375 61.476562 197.816406 60.835938 191.148438 61.40625 C 185.828125 61.832031 180.507812 61.265625 175.1875 61.832031 C 170.863281 62.257812 166.464844 61.761719 162.066406 62.257812 C 158.09375 62.683594 154.121094 62.1875 150.148438 62.683594 C 146.601562 63.109375 142.984375 62.683594 139.4375 63.109375 C 136.03125 63.539062 132.554688 63.039062 129.082031 63.539062 C 126.101562 63.894531 122.980469 63.539062 119.929688 63.964844 C 116.738281 64.320312 113.472656 63.964844 110.210938 64.390625 C 107.375 64.746094 104.535156 64.390625 101.699219 64.746094 C 98.863281 65.101562 96.023438 64.816406 93.1875 65.171875 C 90.421875 65.527344 87.652344 65.171875 84.816406 65.597656 C 82.191406 65.953125 79.496094 65.882812 76.871094 65.953125 C 72.332031 65.738281 67.863281 66.378906 63.324219 66.167969 Z M 63.324219 66.167969 " fill-opacity="1" fill-rule="nonzero"/><path fill="#dec9a6" d="M 64.597656 115.402344 C 64.597656 114.976562 64.597656 114.550781 64.597656 114.125 C 67.648438 114.125 70.699219 114.125 73.75 113.839844 C 77.011719 113.484375 80.347656 113.839844 83.679688 113.484375 C 87.226562 113.058594 90.847656 113.484375 94.390625 113.058594 C 97.585938 112.703125 100.847656 113.058594 104.109375 112.703125 C 107.445312 112.277344 110.851562 112.703125 114.253906 112.277344 C 117.375 111.921875 120.566406 112.277344 123.761719 111.851562 C 127.023438 111.496094 130.355469 111.851562 133.691406 111.421875 C 137.023438 111.070312 140.429688 111.421875 143.835938 110.996094 C 147.238281 110.640625 150.714844 110.996094 154.191406 110.570312 C 157.597656 110.144531 161.070312 110.570312 164.546875 110.144531 C 168.308594 109.71875 172.066406 110.144531 175.898438 109.71875 C 179.726562 109.292969 183.558594 109.71875 187.460938 109.292969 C 191.574219 108.867188 195.832031 109.292969 200.015625 108.867188 C 205.195312 108.441406 210.371094 108.792969 215.550781 108.511719 C 223.636719 108.085938 231.796875 108.15625 239.882812 108.15625 C 260.667969 108.085938 281.378906 107.585938 302.164062 108.441406 C 307.625 108.652344 313.015625 108.367188 318.480469 108.722656 C 323.160156 109.007812 327.914062 109.222656 332.59375 109.222656 C 332.59375 109.648438 332.59375 110.074219 332.59375 110.5 C 326.847656 109.933594 321.03125 110.285156 315.285156 110.003906 C 300.601562 109.222656 285.847656 109.789062 271.164062 109.648438 C 256.480469 109.503906 241.867188 109.363281 227.183594 109.71875 C 220.445312 109.859375 213.777344 109.578125 207.039062 110.074219 C 202.355469 110.429688 197.746094 110.003906 193.136719 110.429688 C 189.09375 110.855469 184.976562 110.429688 181.003906 110.855469 C 177.246094 111.28125 173.414062 110.855469 169.65625 111.28125 C 165.824219 111.707031 161.921875 111.28125 158.09375 111.707031 C 154.6875 112.0625 151.28125 111.707031 147.949219 112.0625 C 144.402344 112.488281 140.925781 112.0625 137.378906 112.488281 C 133.902344 112.84375 130.429688 112.488281 127.023438 112.914062 C 123.546875 113.34375 120.070312 112.914062 116.667969 113.34375 C 113.121094 113.769531 109.574219 113.34375 106.097656 113.769531 C 102.691406 114.125 99.289062 113.769531 95.953125 114.125 C 92.195312 114.550781 88.363281 114.125 84.601562 114.550781 C 80.84375 114.976562 77.15625 114.550781 73.464844 114.976562 C 70.558594 115.402344 67.578125 115.332031 64.597656 115.402344 Z M 64.597656 115.402344 " fill-opacity="1" fill-rule="nonzero"/><path fill="#dec9a6" d="M 64.101562 89.328125 C 67.082031 88.832031 70.0625 89.1875 73.039062 88.902344 C 76.019531 88.546875 79 88.832031 81.980469 88.476562 C 84.746094 88.121094 87.582031 88.402344 90.347656 88.050781 C 93.328125 87.695312 96.308594 87.976562 99.289062 87.621094 C 101.984375 87.265625 104.75 87.550781 107.445312 87.265625 C 110.351562 86.914062 113.332031 87.195312 116.167969 86.839844 C 118.9375 86.484375 121.773438 86.769531 124.539062 86.484375 C 127.730469 86.128906 130.925781 86.414062 134.046875 86.058594 C 137.023438 85.703125 140.003906 86.058594 142.984375 85.703125 C 146.246094 85.347656 149.507812 85.632812 152.703125 85.277344 C 155.894531 84.921875 159.085938 85.277344 162.207031 84.851562 C 165.542969 84.425781 168.875 84.851562 172.136719 84.425781 C 175.828125 84 179.445312 84.425781 183.0625 84 C 186.964844 83.574219 190.9375 84 194.765625 83.574219 C 199.234375 83.074219 203.703125 83.644531 208.101562 83.148438 C 212.925781 82.648438 217.820312 83.21875 222.644531 82.792969 C 228.675781 82.222656 234.773438 82.863281 240.734375 82.363281 C 248.179688 81.796875 255.628906 82.292969 263.078125 82.011719 C 286.0625 81.15625 309.117188 81.867188 332.097656 81.582031 C 332.097656 82.011719 332.097656 82.4375 332.097656 82.863281 C 315.429688 82.863281 298.828125 82.578125 282.160156 82.933594 C 273.578125 83.148438 264.992188 82.792969 256.480469 83.289062 C 249.457031 83.714844 242.363281 83.21875 235.34375 83.714844 C 230.023438 84.070312 224.703125 83.644531 219.382812 84.070312 C 214.414062 84.496094 209.378906 84 204.484375 84.496094 C 200.371094 84.851562 196.257812 84.496094 192.140625 84.921875 C 188.097656 85.347656 184.054688 84.921875 180.011719 85.347656 C 176.535156 85.703125 173.058594 85.347656 169.65625 85.777344 C 166.25 86.128906 162.84375 85.777344 159.511719 86.203125 C 156.25 86.558594 152.984375 86.203125 149.792969 86.558594 C 146.601562 86.914062 143.410156 86.628906 140.289062 86.984375 C 137.238281 87.339844 134.1875 86.984375 131.136719 87.339844 C 127.875 87.695312 124.609375 87.410156 121.417969 87.765625 C 118.722656 88.050781 115.957031 87.835938 113.261719 88.121094 C 110.070312 88.476562 106.878906 88.191406 103.757812 88.546875 C 101.132812 88.832031 98.578125 88.617188 96.023438 88.902344 C 92.621094 89.257812 89.214844 89.042969 85.878906 89.328125 C 83.183594 89.613281 80.417969 89.398438 77.722656 89.683594 C 74.246094 90.109375 70.84375 89.96875 67.367188 90.039062 C 66.230469 90.109375 65.167969 90.535156 64.03125 90.394531 C 64.101562 90.179688 64.101562 89.753906 64.101562 89.328125 Z M 64.101562 89.328125 " fill-opacity="1" fill-rule="nonzero"/><path fill="#dec9a6" d="M 34.523438 66.167969 C 34.949219 66.023438 35.375 65.953125 35.730469 65.8125 C 37.644531 66.523438 39.628906 66.167969 41.617188 66.023438 C 42.042969 66.023438 42.398438 65.8125 42.75 65.8125 C 46.722656 66.023438 50.695312 65.3125 54.667969 65.457031 C 57.152344 65.527344 59.5625 64.886719 61.976562 65.03125 C 61.976562 65.457031 61.976562 65.8125 61.976562 66.238281 C 59.988281 66.734375 57.929688 66.523438 55.875 66.664062 C 51.335938 66.875 46.792969 66.949219 42.253906 67.160156 C 39.914062 67.230469 37.503906 67.375 35.160156 67.445312 C 34.167969 67.375 34.097656 66.949219 34.523438 66.167969 Z M 34.523438 66.167969 " fill-opacity="1" fill-rule="nonzero"/><g fill="#fffaef" fill-opacity="1"><g transform="translate(129.379382, 122.380209)"><g><path d="M 12.738281 -27.867188 L 2.386719 -27.867188 L 2.386719 0 L 23.488281 0 L 23.488281 -9.15625 L 12.738281 -9.15625 Z M 12.738281 -27.867188 "/></g></g></g><g fill="#fffaef" fill-opacity="1"><g transform="translate(153.662645, 122.380209)"><g><path d="M 12.738281 -27.867188 L 2.386719 -27.867188 L 2.386719 0 L 12.738281 0 Z M 12.738281 -27.867188 "/></g></g></g><g fill="#fffaef" fill-opacity="1"><g transform="translate(168.789925, 122.380209)"><g><path d="M 10.949219 -7.5625 C 6.964844 -7.5625 4.179688 -10.152344 4.179688 -10.152344 L 0.398438 -4.179688 C 0.398438 -4.179688 3.980469 0.597656 12.738281 0.597656 C 19.707031 0.597656 24.085938 -3.78125 24.085938 -8.359375 C 24.085938 -17.117188 13.335938 -17.117188 13.335938 -19.109375 C 13.335938 -19.707031 13.933594 -20.304688 14.929688 -20.304688 C 17.714844 -20.304688 20.105469 -18.113281 20.105469 -18.113281 L 23.886719 -24.085938 C 23.886719 -24.085938 20.304688 -28.464844 13.136719 -28.464844 C 6.171875 -28.464844 1.792969 -24.085938 1.792969 -19.507812 C 1.792969 -10.75 12.539062 -10.75 12.539062 -8.757812 C 12.539062 -8.160156 11.941406 -7.5625 10.949219 -7.5625 Z M 10.949219 -7.5625 "/></g></g></g><g fill="#fffaef" fill-opacity="1"><g transform="translate(193.670318, 122.380209)"><g><path d="M 0.796875 -27.867188 L 0.796875 -18.710938 L 8.359375 -18.710938 L 8.359375 0 L 18.710938 0 L 18.710938 -18.710938 L 26.273438 -18.710938 L 26.273438 -27.867188 Z M 0.796875 -27.867188 "/></g></g></g><g fill="#fffaef" fill-opacity="1"><g transform="translate(220.740182, 122.380209)"><g><path d="M 10.949219 -7.5625 C 6.964844 -7.5625 4.179688 -10.152344 4.179688 -10.152344 L 0.398438 -4.179688 C 0.398438 -4.179688 3.980469 0.597656 12.738281 0.597656 C 19.707031 0.597656 24.085938 -3.78125 24.085938 -8.359375 C 24.085938 -17.117188 13.335938 -17.117188 13.335938 -19.109375 C 13.335938 -19.707031 13.933594 -20.304688 14.929688 -20.304688 C 17.714844 -20.304688 20.105469 -18.113281 20.105469 -18.113281 L 23.886719 -24.085938 C 23.886719 -24.085938 20.304688 -28.464844 13.136719 -28.464844 C 6.171875 -28.464844 1.792969 -24.085938 1.792969 -19.507812 C 1.792969 -10.75 12.539062 -10.75 12.539062 -8.757812 C 12.539062 -8.160156 11.941406 -7.5625 10.949219 -7.5625 Z M 10.949219 -7.5625 "/></g></g></g><g fill="#fffaef" fill-opacity="1"><g transform="translate(69.232403, 82.922207)"><g><path d="M 28.078125 0 L 33.265625 -16.847656 L 33.265625 0 L 44.496094 0 L 44.496094 -30.238281 L 28.511719 -30.238281 L 23.542969 -13.824219 L 18.574219 -30.238281 L 2.59375 -30.238281 L 2.59375 0 L 13.824219 0 L 13.824219 -16.847656 L 19.007812 0 Z M 28.078125 0 "/></g></g></g><g fill="#fffaef" fill-opacity="1"><g transform="translate(116.31535, 82.922207)"><g><path d="M 12.097656 -30.238281 L -0.863281 -30.238281 L 9.503906 -11.664062 L 9.503906 0 L 20.734375 0 L 20.734375 -11.664062 L 31.105469 -30.238281 L 18.144531 -30.238281 L 15.121094 -21.601562 Z M 12.097656 -30.238281 "/></g></g></g></svg>